<?xml version="1.0" standalone="no"?>
<!DOCTYPE svg PUBLIC "-//W3C//DTD SVG 20010904//EN"
 "http://www.w3.org/TR/2001/REC-SVG-20010904/DTD/svg10.dtd">
<svg version="1.0" xmlns="http://www.w3.org/2000/svg"
 width="864.000000pt" height="864.000000pt" viewBox="0 0 864.000000 864.000000"
 preserveAspectRatio="xMidYMid meet">
<metadata>
Created by potrace 1.14, written by Peter Selinger 2001-2017
</metadata>
<g transform="translate(0.000000,864.000000) scale(0.100000,-0.100000)"
fill="#000000" stroke="none">
<path d="M4181 8154 c-137 -29 -285 -119 -407 -245 -92 -96 -146 -171 -234
-324 -69 -119 -78 -130 -206 -245 -766 -695 -1349 -1584 -1681 -2565 -67 -200
-143 -471 -178 -641 -15 -71 -32 -147 -39 -169 -6 -22 -286 -515 -621 -1095
-744 -1289 -687 -1187 -735 -1308 -101 -256 -104 -481 -9 -680 98 -203 305
-341 599 -398 91 -18 232 -19 3570 -22 2501 -2 3510 0 3599 8 329 30 560 146
693 349 129 197 140 459 31 736 -44 114 -11 54 -569 1020 -260 451 -474 825
-475 830 -1 6 22 13 52 18 120 17 227 99 282 215 l32 67 0 535 0 535 -27 57
c-45 96 -133 177 -230 211 -22 7 -173 13 -458 17 l-425 5 -5 430 -5 430 -27
57 c-52 112 -159 195 -282 217 -33 6 -166 11 -295 11 l-236 0 -420 728 c-231
400 -442 760 -468 800 -62 93 -193 231 -272 288 -174 123 -369 169 -554 128z
m231 -495 c61 -31 131 -102 193 -193 54 -81 748 -1277 743 -1281 -2 -1 -20
-10 -41 -20 -52 -24 -130 -96 -160 -148 -54 -93 -57 -117 -57 -554 l0 -403
-404 0 c-376 0 -408 -1 -467 -20 -114 -36 -194 -112 -241 -229 -22 -55 -23
-64 -26 -530 -2 -270 1 -501 6 -536 27 -167 155 -297 322 -324 37 -6 227 -11
443 -11 l377 0 0 -404 c0 -376 1 -408 20 -467 38 -121 129 -212 251 -249 63
-20 86 -21 575 -18 l509 3 67 32 c119 56 197 160 218 289 6 32 10 229 10 437
l0 377 103 0 102 0 563 -975 c310 -536 574 -1002 588 -1035 107 -263 49 -387
-204 -436 -62 -12 -307 -14 -1501 -14 l-1428 0 -104 107 c-702 724 -1194 1571
-1459 2507 -241 853 -262 1757 -59 2571 71 284 65 271 381 817 294 508 342
583 418 652 93 84 172 101 262 55z m-1174 -883 c33 -31 37 -39 36 -83 0 -43
-11 -65 -98 -208 -54 -88 -129 -218 -167 -291 -38 -72 -77 -138 -86 -147 -32
-28 -72 -38 -112 -27 -51 14 -82 49 -88 102 -5 39 2 58 55 164 120 238 260
470 305 502 50 35 108 30 155 -12z m-557 -1125 c51 -51 51 -73 -7 -247 -25
-77 -68 -220 -94 -319 -40 -148 -53 -184 -75 -202 -75 -65 -172 -29 -195 71
-7 30 0 70 36 205 24 92 66 237 93 322 60 186 77 206 165 208 32 1 45 -6 77
-38z m-302 -1185 c15 -8 36 -30 46 -50 18 -33 18 -43 7 -158 -7 -68 -15 -215
-18 -328 -8 -241 -14 -262 -82 -292 -42 -19 -47 -19 -86 -4 -67 26 -76 51 -76
208 0 177 28 523 45 564 26 62 104 91 164 60z m26 -1259 c25 -25 35 -45 40
-83 15 -123 49 -321 76 -454 38 -189 38 -203 -6 -247 -33 -33 -39 -35 -86 -31
-66 7 -104 42 -119 112 -54 246 -72 343 -95 519 -12 92 -12 114 -1 141 20 49
61 76 113 76 38 0 51 -6 78 -33z m-1025 -764 c51 -492 181 -971 394 -1456 l16
-37 -490 0 c-544 0 -594 4 -703 63 -66 35 -91 65 -109 130 -15 57 1 152 41
247 15 36 205 372 422 748 l394 683 8 -93 c4 -51 16 -179 27 -285z m1306 -430
c26 -16 36 -37 97 -193 44 -112 70 -172 156 -352 25 -53 41 -101 41 -123 0
-108 -127 -163 -201 -88 -46 46 -289 598 -289 655 0 42 33 90 74 109 44 20 84
17 122 -8z m565 -1109 c27 -24 139 -180 139 -193 0 -8 -43 -11 -142 -9 l-142
3 -23 34 c-32 47 -30 101 4 141 14 18 36 36 47 41 30 13 94 4 117 -17z"/>
</g>
</svg>
