<svg id="Layer_1" data-name="Layer 1" xmlns="http://www.w3.org/2000/svg" viewBox="0 0 174.92 55.02"><defs><style>.cls-1,.cls-4{fill:#fff;}.cls-2{fill:#ffd200;}.cls-3,.cls-5{fill:#e32726;}.cls-3,.cls-4{fill-rule:evenodd;}</style></defs><path class="cls-1" d="M169.87,11.4H41.77L38.1,5C36.23,1.81,33.42,0,30.39,0S24.54,1.81,22.67,5l-1,1.72A35.07,35.07,0,0,0,9.13,28.48L1.56,41.6C-.31,44.84-.51,48.2,1,50.83S5.54,55,9.28,55H51.49c3.74,0,6.75-1.51,8.27-4.14s1.32-6-.55-9.23l0,0H169.87a5,5,0,0,0,5-5.05V16.44A5,5,0,0,0,169.87,11.4Z"/><path d="M124.45,16.36h10.8v2.58h-7.9V24.6h7.9v2.58h-7.9v9.44h-2.9Z"/><path d="M142,16.36h2.9V36.62H142Z"/><path d="M151.78,16.33H168.7v2.58h-7.06V36.62h-2.92V18.91h-6.94Z"/><path class="cls-2" d="M30.39,5c1.21,0,2.42.92,3.38,2.59L44.33,25.82,54.88,44.1c1,1.67,1.16,3.18.55,4.23S53.42,50,51.49,50H9.28C7.35,50,6,49.39,5.34,48.33s-.41-2.56.55-4.23L16.44,25.82,27,7.54C28,5.87,29.17,5,30.39,5Z"/><path d="M56.18,43.35,35.07,6.79c-1.24-2.15-2.91-3.34-4.68-3.34S26.94,4.64,25.7,6.79L25.06,7.9A38.08,38.08,0,0,0,12.43,29.77L4.59,43.35C3.35,45.51,3.15,47.54,4,49.08s2.75,2.39,5.24,2.39h7l0,0H24l0,0h1.93l0,0H38l-.06,0h13.6c2.49,0,4.35-.85,5.24-2.39S57.42,45.51,56.18,43.35ZM17.21,35a.76.76,0,0,1,.66-.84.75.75,0,0,1,.83.66,33.86,33.86,0,0,0,.66,3.73.74.74,0,0,1-.55.9.55.55,0,0,1-.18,0,.76.76,0,0,1-.73-.57A37,37,0,0,1,17.21,35Zm4.44,11.64a.72.72,0,0,1-.34.09.74.74,0,0,1-.67-.41,33.52,33.52,0,0,1-1.59-3.63.75.75,0,0,1,1.41-.52A31.37,31.37,0,0,0,22,45.63.74.74,0,0,1,21.65,46.63ZM18,26.42a.75.75,0,0,1,.66.83A33.31,33.31,0,0,0,18.48,31a.78.78,0,0,1-.75.78A.73.73,0,0,1,17,31c0-1.17.06-2.31.17-3.44l.67-1.15A.75.75,0,0,1,18,26.42Zm2.49-10.68a14.31,14.31,0,0,1,.86-1.46l-.86,1.49ZM9.28,48.47c-1.33,0-2.32-.33-2.64-.89s-.12-1.58.55-2.73l4.72-8.18a30,30,0,0,0,2.76,11.8m39.46-.89c-.32.56-1.31.89-2.64.89h-17c-9.9-9.7-13.16-23.26-9.59-34.23l3.44-6c.66-1.15,1.44-1.84,2.09-1.84s1.42.69,2.08,1.84L53.58,44.85C54.25,46,54.45,47,54.13,47.58Z"/><path class="cls-2" d="M23.5,12.06c-.35-.23-.62-.06-.84.29a37.76,37.76,0,0,0-2.14,3.39.75.75,0,0,0,.35,1,.74.74,0,0,0,1-.34,33.93,33.93,0,0,1,1.68-3.49C23.77,12.56,23.85,12.28,23.5,12.06Z"/><path class="cls-2" d="M20.46,42.16a.75.75,0,0,0-1.41.52,33.52,33.52,0,0,0,1.59,3.63.74.74,0,0,0,.67.41.72.72,0,0,0,.34-.09.74.74,0,0,0,.32-1A31.37,31.37,0,0,1,20.46,42.16Z"/><path class="cls-2" d="M19.36,38.54a33.86,33.86,0,0,1-.66-3.73.75.75,0,0,0-.83-.66.76.76,0,0,0-.66.84,37,37,0,0,0,.69,3.9.76.76,0,0,0,.73.57.55.55,0,0,0,.18,0A.74.74,0,0,0,19.36,38.54Z"/><path class="cls-2" d="M18.48,31a33.31,33.31,0,0,1,.21-3.73.75.75,0,0,0-1.49-.17A34.23,34.23,0,0,0,17,31a.73.73,0,0,0,.75.73A.78.78,0,0,0,18.48,31Z"/><path class="cls-2" d="M22.85,48.68a.75.75,0,0,0-.2,1c.41.61.85,1.21,1.3,1.79h1.94a30.33,30.33,0,0,1-2-2.63A.75.75,0,0,0,22.85,48.68Z"/><path class="cls-2" d="M18.43,24.08a.52.52,0,0,0,.17,0,.75.75,0,0,0,.73-.58,35.13,35.13,0,0,1,1.07-3.63A.75.75,0,1,0,19,19.38a36,36,0,0,0-1.12,3.8A.75.75,0,0,0,18.43,24.08Z"/><path class="cls-3" d="M36.23,38a9,9,0,0,1-4.17-6.88V16.6H51.23l0,14.55A9,9,0,0,1,47,38l-5.32,2.75L36.23,38Z"/><path class="cls-4" d="M40.31,25.2a.49.49,0,0,0-.35.49,1.48,1.48,0,0,1-.22-.8s-.67.09-.45-.4c0,0-.22-.39-.44-.08,0,0-.31-.62.57-1.07a.67.67,0,0,1,.58-.62,1,1,0,0,1,1-.44s.13-.4.93-.31c0,0-.13-.62-1.11-.45,0,0-1.11-.09-.53-.93,0,0-.09.62.57.31a1.73,1.73,0,0,1,.94.49s.4.09.53-.09l-.58-.4s-.84-.18-.71-.75c0,0-.44-.76.22-.67,0,0,.18-.09.54.18,0,0,2-.27,2-.84a2.09,2.09,0,0,1,.53,1l.4-.09s-.31,1.16,0,1.29l.26.49s-.39.18-.44.35.44.93.44.93-.17.23-.39.18a4,4,0,0,0-.23,1.95s-.13.49-1.42.36c0,0-.26,0-.22-.4a2.71,2.71,0,0,1-.44.89s-.05-.85-1.55,0a1.93,1.93,0,0,0-.45-.58Z"/><path class="cls-4" d="M43.77,26a1.1,1.1,0,0,0-.66.62l-.36-.4a.66.66,0,0,1-.49.44l-.08-.26a5.72,5.72,0,0,1-1.11,0,.62.62,0,0,0-.27.45s-.49-.36-.49-.58l-.35.44a2.56,2.56,0,0,1-.4-1,.75.75,0,0,0-.4.36,6.92,6.92,0,0,1-.27-.76,2,2,0,0,0-.17,1.07,7.69,7.69,0,0,1-2.8.49l-.27-.54a.41.41,0,0,0-.66,0s.31.27.31.4l-.76.05a2.86,2.86,0,0,1,.14.31s0,.31.89.26c0,0,0,.18,0,.23s-.62-.23-.53.62c0,0,.62.17.8-.09a.51.51,0,0,0,.09-.36h.35a1.54,1.54,0,0,1,0,.85,1.93,1.93,0,0,0,.89-.8s.57-.14.53.44c0,0,.27-.62.75-.49a.43.43,0,0,1-.22.27s.27.27.54-.18c0,0,.44-.18.31.22,0,0,.48-.13.53-.31,0,0,.89.31.31.71,0,0,.18.27.58,0a9.1,9.1,0,0,0,1.59,2s.45.39,0,1.24A2.09,2.09,0,0,0,42.35,34a2.17,2.17,0,0,0,1.42.27,12.12,12.12,0,0,1-1.46,1s-.31.13-.58,1.24a1.15,1.15,0,0,1-.93-.27.71.71,0,0,0-.89.4s.71-.18.85.09c0,0-.89.22-.85,1,0,0,.58.26,1.6-.71,0,0,.13.08.09.17s-.93.22.09,1.25c0,0,.13-1.07.62-1.11a.63.63,0,0,1,.44.75s.45-.71.71-.8c0,0-.66-.93.4-.75,0,0,.27-.14,0-.45,0,0,.53-.22.71,0a.3.3,0,0,1,.09-.35h.71s-.89-.4.71-1c0,0-.49-.31.17-.4,0,0,.27,0,.45-.75,0,0-2.22,1.24-1.91-1.2,0,0,1.46-.26,1.37.76a1,1,0,0,0,.27-.89s.89,0,.71-2.75c0,0,.18-.27.84-.36,0,0,1.38-.53-.44-1.33,0,0,.8,1.07-.62,1.2a9.74,9.74,0,0,1,.13-3.5s1.51-3.33,1.29-4c0,0-.45-2.31-2.8-1,0,0,1.2.22.76,1.29A5.13,5.13,0,0,0,45,25a14,14,0,0,0,.89,3.24,1.48,1.48,0,0,1,.26,1,1.1,1.1,0,0,1-.71-.31s-1.11-.36-.31,1.37c0,0-.57-.93,1.16-.44,0,0,.93,1.82-.36,2.13a1.24,1.24,0,0,1-1.15-.67s-.62-1.37-.8-1.86A4.25,4.25,0,0,1,43.77,26Z"/><path class="cls-4" d="M41.55,31.24l-1.06-1a.81.81,0,0,0-1,.13,1.63,1.63,0,0,0-.84,1.42s-.22.09-.44-.31a2.4,2.4,0,0,0-1.11-.53s-.67-.58-.71-1c0,0-.4-.49-1.16.13a.94.94,0,0,1,.23.44s.17.27.71.23a.37.37,0,0,1,0,.22s-1.42-.49-1.2.71a.41.41,0,0,1,.62,0,.54.54,0,0,0,.62-.22s.44.31-.44.84c0,0,.35.36,1-.35,0,0,.57.09.49,1,0,0,.66-.17.66.71,0,0,.44-.53.36.31a.63.63,0,0,0,.75,0s0,.67,1.15.45c0,0-1.55-1.47,1.07-1.42a2.26,2.26,0,0,1,.26-1.73Z"/><path class="cls-4" d="M38.58,18.77s.76.27-.22,1.07c0,0-.62.4-.13,2a4,4,0,0,1-.18,2.17,4.15,4.15,0,0,0,.31,1.42s-.93.36-1.38-.13c0,0-.84-.05-1.1-.4,0,0,.62,0,.66-.4a.58.58,0,0,0-.53-.4s.75,0,.53-1.33c0,0,.84-.49.44-1.91,0,0-1.15.45-.88-1a.58.58,0,0,0,.4.13s.13,0,.17.31c0,0,.58,0,.14-.48a.29.29,0,0,1-.4-.27A.45.45,0,0,0,36.1,19s.71-.44,1.33.53c0,0,.49-.22,0-1a.79.79,0,0,1,.93.57s.31.05.22-.31Z"/><polygon class="cls-5" points="66.51 23.86 60 16.35 55.62 16.35 55.62 36.6 60.66 36.6 60.66 23.96 66.13 30.31 66.89 30.31 72.36 23.96 72.36 36.6 77.41 36.6 77.41 16.35 73.03 16.35 66.51 23.86"/><polygon class="cls-5" points="86.4 28.02 95.64 28.02 95.64 24.31 86.4 24.31 86.4 20.06 96.09 20.06 96.09 16.35 81.36 16.35 81.36 36.6 96.29 36.6 96.29 32.89 86.4 32.89 86.4 28.02"/><path class="cls-5" d="M117.24,19.18a11.47,11.47,0,0,0-8.19-2.83h-8.93V36.61h8.37q5.66,0,8.71-2.7a9.36,9.36,0,0,0,3-7.4A9.61,9.61,0,0,0,117.24,19.18Z"/><path class="cls-1" d="M116.46,25v2.89a1.25,1.25,0,0,1-1.26,1.26h-2.49v2.49a1.26,1.26,0,0,1-1.26,1.26h-2.89a1.26,1.26,0,0,1-1.26-1.26V29.18h-2.49a1.25,1.25,0,0,1-1.26-1.26V25a1.26,1.26,0,0,1,1.26-1.26h2.49V21.28A1.26,1.26,0,0,1,108.56,20h2.89a1.26,1.26,0,0,1,1.26,1.26v2.49h2.49A1.26,1.26,0,0,1,116.46,25Z"/></svg>