<svg id="Layer_1" data-name="Layer 1" xmlns="http://www.w3.org/2000/svg" xmlns:xlink="http://www.w3.org/1999/xlink" viewBox="0 0 177.21 55.02"><defs><style>.cls-1{fill:none;}.cls-2{fill:#fff;}.cls-3{fill:#231f20;}.cls-4,.cls-5{fill:#ffd200;}.cls-5{stroke:#1d1d1b;stroke-miterlimit:10;stroke-width:3px;}.cls-6{clip-path:url(#clip-path);}.cls-7{fill:#e32726;}</style><clipPath id="clip-path"><path class="cls-1" d="M25.39,5c1.22,0,2.43.92,3.39,2.59L39.33,25.87,49.89,44.15c1,1.67,1.16,3.17.55,4.23S48.43,50,46.5,50H4.29C2.36,50,1,49.44.35,48.38s-.42-2.56.55-4.23L11.45,25.87,22,7.59C23,5.92,24.17,5,25.39,5Z"/></clipPath></defs><rect class="cls-2" x="31.57" y="12.15" width="145.64" height="30.16" rx="5.04"/><path class="cls-3" d="M129.72,17.38h10.8V20h-7.9v5.66h7.9V28.2h-7.9v9.44h-2.9Z"/><path class="cls-3" d="M147.22,17.38h2.9V37.64h-2.9Z"/><path class="cls-3" d="M157.05,17.35H174v2.58h-7.06V37.64H164V19.93h-6.94Z"/><path class="cls-2" d="M33.14,1.41h0C10.37,14,7.44,40.4,23.18,54c7.31-.77,13.62.45,20.93-.32C22.15,41.6,18.22,14.42,33.14,1.41Z"/><path class="cls-4" d="M13,52.52c-2.87,0-5-1-6.11-2.89S6,45.38,7.46,42.9L28.57,6.34C30,3.86,32,2.5,34.12,2.5s4.13,1.36,5.55,3.84L60.78,42.9c1.43,2.48,1.63,4.87.55,6.73s-3.24,2.89-6.1,2.89Z"/><path class="cls-2" d="M34.12,5c1.22,0,2.43.92,3.39,2.59L48.06,25.87,58.62,44.15c1,1.67,1.16,3.17.55,4.23S57.16,50,55.23,50H13c-1.93,0-3.33-.58-3.94-1.64s-.42-2.56.55-4.23L20.18,25.87,30.74,7.59C31.7,5.92,32.9,5,34.12,5m0-5c-3,0-5.85,1.86-7.71,5.09L15.85,23.37,5.3,41.65c-1.87,3.24-2.07,6.6-.55,9.23S9.28,55,13,55H55.23C59,55,62,53.51,63.5,50.88s1.32-6-.55-9.23L52.39,23.37,41.84,5.09C40,1.86,37.16,0,34.12,0Z"/><path class="cls-5" d="M34.12,5c1.22,0,2.43.92,3.39,2.59L48.06,25.87,58.62,44.15c1,1.67,1.16,3.17.55,4.23S57.16,50,55.23,50H13c-1.93,0-3.33-.58-3.94-1.64s-.42-2.56.55-4.23L20.18,25.87,30.74,7.59C31.7,5.92,32.9,5,34.12,5Z"/><g class="cls-6"><path class="cls-3" d="M36.09,2.84h0c-22.77,12.61-26.7,41-11,54.56l21.93-2.32C25.1,43,21.17,15.85,36.09,2.84Z"/><path class="cls-4" d="M34.52,4.83A.75.75,0,0,1,34,3.51c.52-.43,1.05-.86,1.6-1.27a.76.76,0,0,1,1,.15.75.75,0,0,1-.15,1c-.53.4-1,.81-1.54,1.22A.72.72,0,0,1,34.52,4.83Z"/><path class="cls-4" d="M29.36,53.17a.73.73,0,0,1-.57-.26,33.49,33.49,0,0,1-2.41-3.14.74.74,0,0,1,.21-1,.75.75,0,0,1,1,.2,29.07,29.07,0,0,0,2.3,3,.75.75,0,0,1-.57,1.24ZM25,46.76a.75.75,0,0,1-.67-.4,34.33,34.33,0,0,1-1.58-3.63.75.75,0,1,1,1.4-.52,32.37,32.37,0,0,0,1.52,3.46.75.75,0,0,1-.33,1A.68.68,0,0,1,25,46.76Zm-2.67-7.25a.75.75,0,0,1-.73-.57A32.5,32.5,0,0,1,21,35a.75.75,0,0,1,.65-.84.76.76,0,0,1,.84.66,31.66,31.66,0,0,0,.66,3.73.74.74,0,0,1-.56.9Zm-.91-7.7a.73.73,0,0,1-.75-.73,36.62,36.62,0,0,1,.22-3.95.76.76,0,0,1,.83-.66.74.74,0,0,1,.66.83A33.31,33.31,0,0,0,22.21,31,.77.77,0,0,1,21.46,31.81Zm.88-7.66-.17,0a.74.74,0,0,1-.56-.9,35.91,35.91,0,0,1,1.11-3.8.75.75,0,0,1,1.42.51,30.24,30.24,0,0,0-1.07,3.63A.75.75,0,0,1,22.34,24.15Zm2.59-7.28a.72.72,0,0,1-.32-.08.74.74,0,0,1-.35-1,35.4,35.4,0,0,1,1.94-3.45.75.75,0,0,1,1.26.8,35.79,35.79,0,0,0-1.85,3.31A.77.77,0,0,1,24.93,16.87Z"/><path class="cls-4" d="M33.61,57.25a.72.72,0,0,1-.46-.16c-.54-.43-1.06-.87-1.57-1.33a.75.75,0,0,1,1-1.11c.48.44,1,.86,1.49,1.27a.75.75,0,0,1-.47,1.33Z"/></g><path class="cls-7" d="M56.32,25.24v5.49a2.39,2.39,0,0,1-2.4,2.39H49.19v4.74a2.4,2.4,0,0,1-2.4,2.4H41.31a2.41,2.41,0,0,1-2.4-2.4V33.12H34.18a2.39,2.39,0,0,1-2.4-2.39V25.24a2.39,2.39,0,0,1,2.4-2.39h4.73V18.11a2.41,2.41,0,0,1,2.4-2.4h5.48a2.4,2.4,0,0,1,2.4,2.4v4.74h4.73A2.39,2.39,0,0,1,56.32,25.24Z"/><path class="cls-7" d="M71.41,24.89l6.52-7.51h4.38V37.64h-5V25l-5.48,6.35H71L65.56,25V37.64h-5V17.38H64.9Z"/><path class="cls-7" d="M101.19,33.93v3.71H86.26V17.38H101v3.71H91.3v4.25h9.24v3.71H91.3v4.88Z"/><path class="cls-7" d="M105,17.38H114a11.46,11.46,0,0,1,8.19,2.83,9.61,9.61,0,0,1,3,7.33A9.38,9.38,0,0,1,122.1,35q-3.06,2.69-8.71,2.69H105Zm5,3.71V33.93h3.29a6.46,6.46,0,0,0,4.9-1.77,6.41,6.41,0,0,0,1.7-4.64,6.35,6.35,0,0,0-1.72-4.71,6.67,6.67,0,0,0-4.94-1.72Z"/></svg>